# Aspose.3D Wavefront OBJ Exporter
# Copyright 2004-2024 Aspose Pty Ltd.
# File created: 02/07/2025 15:34:00

mtllib material.lib
g cadre_lowpoly

#
# object cadre_lowpoly
#

v -0.8784706 -0.0017962385 1.054458
v 0.88738734 0.008644155 1.0477067
v -0.8163986 0.103092656 0.9934196
v 0.83217776 0.10315731 0.99274063
v -0.82444507 0.10998446 -0.99081695
v 0.8184985 0.101994194 -1.0078886
v -0.88684773 0.0070795612 -1.0549814
v 0.883212 -0.006477789 -1.0626653
v -0.8721104 0.045335136 1.0530796
v 0.887021 0.043415796 1.0482563
v 0.8802725 0.043238368 -1.0601332
v -0.88425374 0.04323183 -1.0617865
v 0.85194004 0.07237178 -1.0318797
v 0.8648435 0.073672876 1.021904
v -0.843012 0.07813769 1.023927
v -0.8515884 0.08631536 -1.0241927
v -0.6490462 0.05982359 0.83023393
v 0.66824794 0.056644056 0.81782013
v -0.6622741 0.058980286 -0.836591
v 0.66318464 0.056391347 -0.84031355
v -0.7588953 0.06096041 0.9372023
v -0.7775784 0.06620992 -0.9523697
v 0.7678076 0.059585758 -0.9521329
v 0.7773477 0.060720317 0.93895936
v 0.7932992 0.07221954 -0.97581726
v 0.80128056 0.0758456 0.96622527
v -0.78107274 0.07512551 0.96568465
v -0.802584 0.091899365 -0.9766496
v 0.72798175 0.08234978 0.8890966
v 0.7032306 0.08801081 0.86146986
v 0.6928818 0.08450896 -0.87448716
v 0.7226102 0.0765137 -0.908129
v -0.6882905 0.08782707 -0.8583587
v -0.7282236 0.08328476 -0.8980159
v -0.68938214 0.08658006 0.86599004
v -0.71129227 0.07999771 0.8955612
# 36 vertices

vn 0.42526704 0.8419505 0.3320653
vn 0.0015110967 0.73882335 0.6738975
vn 0.0023491976 0.68464345 0.72887444
vn 0.47499225 0.79588056 0.3754416
vn 0.41539854 0.845416 -0.3357318
vn -0.4812258 0.8081868 -0.33949342
vn -0.40690997 0.84525126 -0.3463733
vn 0.36168873 0.8588536 -0.36270064
vn -0.00023351572 0.7326386 -0.6806177
vn -0.00023351573 0.73263866 -0.68061775
vn 0.0010435429 0.68762517 -0.72606516
vn 0.0009765014 0.6900621 -0.72374946
vn 0.66673505 0.74527913 -0.0048244135
vn 0.42526704 0.8419505 0.3320653
vn 0.47499225 0.79588056 0.3754416
vn 0.7294971 0.68397105 -0.004190061
vn -0.67096746 0.7414661 0.0055369493
vn -0.67096746 0.74146616 0.0055369497
vn -0.75493366 0.65578246 0.0049527376
vn -0.75372857 0.6571671 0.00496223
vn 0.0032416354 0.26487818 0.9642765
vn 0.6985786 0.38115254 0.60556644
vn 0.47499225 0.79588056 0.3754416
vn 0.0023491976 0.68464345 0.72887444
vn 0.6985786 0.38115254 0.60556644
vn 0.96385914 0.26639226 -0.0032786017
vn 0.7294971 0.68397105 -0.004190061
vn 0.47499225 0.79588056 0.3754416
vn 0.0009765014 0.6900621 -0.72374946
vn 0.0010435429 0.68762517 -0.72606516
vn -0.0006236119 0.2563413 -0.9665861
vn -0.000553727 0.2720826 -0.9622737
vn -0.93532073 0.35376433 0.0051114876
vn -0.94090223 0.33863977 0.0051143025
vn -0.75372857 0.6571671 0.00496223
vn -0.75493366 0.65578246 0.0049527376
vn 0.00325958 0.009880959 0.9999458
vn 0.00325958 0.009880958 0.9999459
vn 0.6985786 0.38115254 0.60556644
vn 0.0032416354 0.26487818 0.9642765
vn 0.9992276 0.039200537 -0.002729501
vn 0.99922764 0.039200533 -0.0027295009
vn 0.96385914 0.26639226 -0.0032786017
vn 0.6985786 0.38115254 0.60556644
vn -0.000553727 0.2720826 -0.9622737
vn -0.0006236119 0.2563413 -0.9665861
vn -0.0018945624 -0.049708858 -0.99876195
vn -0.0018945624 -0.049708858 -0.9987619
vn -0.9942051 0.10738297 0.005001717
vn -0.9942052 0.10738298 0.0050017172
vn -0.94090223 0.33863977 0.0051143025
vn -0.93532073 0.35376433 0.0051114876
vn -0.45345363 0.8092383 0.3735145
vn -0.45086914 0.832931 0.32084718
vn -0.40690997 0.84525126 -0.3463733
vn -0.4812258 0.8081868 -0.33949342
vn -0.029669266 0.99929714 -0.022913527
vn -0.02895347 0.99932605 0.022563612
vn 0.029282546 0.99931085 0.02281156
vn 0.029949287 0.9992374 -0.025052743
vn 0.45824468 0.8412512 0.2868944
vn 0.39342207 0.8468724 0.3578075
vn -0.45086914 0.832931 0.32084718
vn -0.45345363 0.8092383 0.3735145
vn 0.41539854 0.845416 -0.3357318
vn 0.36168873 0.8588536 -0.36270064
vn 0.39342207 0.8468724 0.3578075
vn 0.45824468 0.8412512 0.2868944
vn 0.18358675 0.9732893 0.13785404
vn 0.17962416 0.9806893 -0.0773536
vn -0.1800095 0.96698564 0.18037522
vn -0.18133737 0.9742799 -0.13377419
vn -0.08879252 0.9848504 0.14894865
vn 0.18358675 0.9732893 0.13785404
vn -0.18133737 0.9742799 -0.13377419
vn 0.19590083 0.9697569 -0.14558299
vn 0.17962416 0.9806893 -0.0773536
vn -0.0978435 0.99228424 -0.076148964
vn 0.20513281 0.96364874 0.17117725
vn -0.1800095 0.96698564 0.18037522
vn -0.40690997 0.84525126 -0.3463733
vn -0.45086914 0.832931 0.32084718
vn -0.08879252 0.9848504 0.14894865
vn -0.0978435 0.99228424 -0.076148964
vn 0.36168873 0.8588536 -0.36270064
vn -0.40690997 0.84525126 -0.3463733
vn -0.0978435 0.99228424 -0.076148964
vn 0.17962416 0.9806893 -0.0773536
vn 0.39342207 0.8468724 0.3578075
vn 0.36168873 0.8588536 -0.36270064
vn 0.17962416 0.9806893 -0.0773536
vn 0.18358675 0.9732893 0.13785404
vn -0.45086914 0.832931 0.32084718
vn 0.39342207 0.8468724 0.3578075
vn 0.18358675 0.9732893 0.13785404
vn -0.08879252 0.9848504 0.14894865
vn 0.20513281 0.96364874 0.17117725
vn -0.040624652 0.9971253 -0.06395806
vn 0.060465865 0.997274 -0.042291157
vn -0.1800095 0.96698564 0.18037522
vn -0.040624652 0.9971253 -0.06395806
vn 0.20513281 0.96364874 0.17117725
vn 0.19590083 0.9697569 -0.14558299
vn -0.04676772 0.9975302 0.05240397
vn -0.04676772 0.9975302 0.05240397
vn 0.19590083 0.9697569 -0.14558299
vn -0.18133737 0.9742799 -0.13377419
vn 0.079469986 0.9957781 0.045940097
vn 0.079469986 0.9957781 0.045940097
vn -0.18133737 0.9742799 -0.13377419
vn -0.1800095 0.96698564 0.18037522
vn 0.060465865 0.997274 -0.042291157
vn 0.029949287 0.9992374 -0.025052743
vn 0.029282546 0.99931085 0.02281156
vn 0.079469986 0.9957781 0.045940097
vn 0.060465865 0.997274 -0.042291157
vn 0.060465865 0.997274 -0.042291157
vn -0.040624652 0.9971253 -0.06395806
vn -0.029669266 0.99929714 -0.022913527
vn 0.029949287 0.9992374 -0.025052743
vn 0.029282546 0.99931085 0.02281156
vn -0.02895347 0.99932605 0.022563612
vn -0.04676772 0.9975302 0.05240397
vn 0.079469986 0.9957781 0.045940097
vn -0.040624652 0.9971253 -0.06395806
vn -0.04676772 0.9975302 0.05240397
vn -0.02895347 0.99932605 0.022563612
vn -0.029669266 0.99929714 -0.022913527
vn -0.08879252 0.9848504 0.14894865
vn 0.19590083 0.9697569 -0.14558299
vn 0.20513281 0.96364874 0.17117725
vn -0.0978435 0.99228424 -0.076148964
# 132 vertex normals

vt 0.94641066 0.051737428 0
vt 0.061799854 0.051432073 0
vt 0.044668198 0.035182506 0
vt 0.9658139 0.03758034 0
vt 0.9298315 0.06366098 0
vt 0.08075541 0.06390411 0
vt 0.057482213 0.94371325 0
vt 0.9390706 0.95139 0
vt 0.9622605 0.96553034 0
vt 0.036331594 0.96406686 0
vt 0.025687542 0.024603933 0
vt 0.975839 0.026772857 0
vt 0.9722179 0.9748837 0
vt 0.025389433 0.97562724 0
vt 0.00024901563 0.02501649 0
vt 0.97594535 0.00014196336 0
vt 0.9996407 0.97379076 0
vt 0.024888884 0.9998611 0
vt 0.92554885 0.9369681 0
vt 0.86140174 0.12405272 0
vt 0.85788935 0.87891257 0
vt 0.1448614 0.8765189 0
vt 0.14856973 0.12193581 0
vt 0.069212615 0.9373424 0
vt 0.082630396 0.926424 0
vt 0.0926556 0.07671222 0
vt 0.11819899 0.09543756 0
vt 0.10911372 0.90198195 0
vt 0.91187036 0.9263176 0
vt 0.88761777 0.9065297 0
vt 0.91698945 0.07592207 0
vt 0.89050007 0.098344535 0
vt 0.8754766 0.11163898 0
vt 0.12995571 0.10873523 0
vt 0.87253684 0.891837 0
vt 0.13141258 0.88545525 0
vt 0.0009946348 0.9756049 0
vt 0.97248816 0.99949515 0
vt 0.99983954 0.02657045 0
vt 0.025166105 3.614137E-05 0
# 40 texture coords

usemtl blinn2
s 1
f 4/1/1 3/2/2 15/3/3 14/4/4
f 3/2/5 4/1/6 26/5/7 27/6/8
f 5/7/9 6/8/10 13/9/11 16/10/12
f 6/8/13 4/1/14 14/4/15 13/9/16
f 3/2/17 5/7/18 16/10/19 15/3/20
f 9/11/21 10/12/22 14/4/23 15/3/24
f 10/12/25 11/13/26 13/9/27 14/4/28
f 16/10/29 13/9/30 11/13/31 12/14/32
f 12/14/33 9/11/34 15/3/35 16/10/36
f 1/40/37 2/16/38 10/12/39 9/11/40
f 2/39/41 8/17/42 11/13/43 10/12/44
f 12/14/45 11/13/46 8/38/47 7/18/48
f 7/37/49 1/15/50 9/11/51 12/14/52
f 6/8/53 25/19/54 26/5/55 4/1/56
f 18/20/57 20/21/58 19/22/59 17/23/60
f 5/7/61 28/24/62 25/19/63 6/8/64
f 3/2/65 27/6/66 28/24/67 5/7/68
f 22/25/69 21/26/70 36/27/71 34/28/72
f 23/29/73 22/25/74 34/28/75 32/30/76
f 21/26/77 24/31/78 29/32/79 36/27/80
f 26/5/81 25/19/82 23/29/83 24/31/84
f 27/6/85 26/5/86 24/31/87 21/26/88
f 28/24/89 27/6/90 21/26/91 22/25/92
f 25/19/93 28/24/94 22/25/95 23/29/96
f 29/32/97 30/33/98 35/34/99 36/27/100
f 30/33/101 29/32/102 32/30/103 31/35/104
f 31/35/105 32/30/106 34/28/107 33/36/108
f 33/36/109 34/28/110 36/27/111 35/34/112
f 17/23/113 19/22/114 33/36/115 35/34/116
f 35/34/117 30/33/118 18/20/119 17/23/120
f 19/22/121 20/21/122 31/35/123 33/36/124
f 30/33/125 31/35/126 20/21/127 18/20/128
f 23/29/129 32/30/130 29/32/131 24/31/132
#33 polygons

