#
#
#

mtllib room.mtl


#
# Mesh 
#
g Mesh 


#
# Mesh _Material.004
#
usemtl Mesh _Material.004

v 18.158154 13.014125 -13.501701
v 18.158184 13.014126 26.540207
v -21.883724 13.014126 26.540237
v -21.883755 13.014125 -13.501671
v -21.883724 -1.864612 26.540237
v -21.883755 -1.864612 -13.501671
v 18.158154 -1.864612 -13.501701
v -21.958614 -1.825252 -13.446918
v -21.958641 -1.825249 26.594990
v 18.083267 -1.825249 26.595016
v 18.083294 -1.825252 -13.446891
v 18.083267 13.053488 26.595015
v 18.083294 13.053485 -13.446892
v -21.958614 13.053485 -13.446918
vn -0.000000 -1.000000 -0.000000
vn 1.000000 0.000000 0.000000
vn 0.000000 0.000000 1.000000
f 1//1 2//1 3//1 4//1
f 4//2 3//2 5//2 6//2
f 1//3 4//3 6//3 7//3

#
# Mesh _Material.012
#
usemtl Mesh _Material.012

v 18.158154 13.014125 -13.501701
v 18.158184 13.014126 26.540207
v -21.883724 13.014126 26.540237
v -21.883755 13.014125 -13.501671
v -21.883724 -1.864612 26.540237
v -21.883755 -1.864612 -13.501671
v 18.158154 -1.864612 -13.501701
v -21.958614 -1.825252 -13.446918
v -21.958641 -1.825249 26.594990
v 18.083267 -1.825249 26.595016
v 18.083294 -1.825252 -13.446891
v 18.083267 13.053488 26.595015
v 18.083294 13.053485 -13.446892
v -21.958614 13.053485 -13.446918
vn 0.000000 1.000000 0.000000
vn -1.000000 -0.000000 -0.000000
vn 0.000000 0.000000 1.000000
f 22//4 23//4 24//4 25//4
f 25//5 24//5 26//5 27//5
f 22//6 25//6 27//6 28//6
