# Aspose.3D Wavefront OBJ Exporter
# Copyright 2004-2024 Aspose Pty Ltd.
# File created: 02/07/2025 20:08:28

mtllib material.lib
g Glass_LP

#
# object Glass_LP
#

v -23.481226 119.5432 87.31763
v 0.70836776 121.92565 87.31763
v -46.741215 112.48735 87.31763
v -68.17775 101.02929 87.31763
v -86.96702 85.60933 87.31763
v -102.386986 66.82006 87.31762
v -113.84504 45.38354 87.31762
v -120.90088 22.123545 87.31762
v -123.28335 -2.066032 87.31762
v -120.900894 -26.255604 87.31762
v -113.84505 -49.515583 87.31762
v -102.386986 -70.95213 87.31762
v -86.96702 -89.74142 87.31762
v -68.17774 -105.16139 87.31762
v -46.741203 -116.61945 87.31762
v -23.481197 -123.6753 87.31762
v 0.70839363 -126.057755 87.31762
v 24.897985 -123.67528 87.31762
v 48.157978 -116.61941 87.31762
v 69.59452 -105.16135 87.31762
v 88.38377 -89.74137 87.31762
v 103.80374 -70.95206 87.31762
v 115.261795 -49.515514 87.31762
v 122.3176 -26.255516 87.31762
v 124.70006 -2.065915 87.31762
v 122.317566 22.12367 87.31762
v 115.261696 45.383667 87.31762
v 103.80361 66.82019 87.31762
v 88.38362 85.609436 87.31763
v 69.594315 101.02938 87.31763
v 48.157764 112.4874 87.31763
v 24.89774 119.54322 87.31763
v -23.481226 119.5432 96.73515
v -22.932335 116.7837 99.53516
v 0.7083677 119.11211 99.53516
v 0.7083675 121.92565 96.73515
v -46.741215 112.48735 96.73515
v -45.664482 109.887985 99.53516
v -68.17775 101.02929 96.73515
v -66.61462 98.68991 99.53516
v -86.96702 85.60933 96.73515
v -84.97755 83.61985 99.53516
v -102.386986 66.82006 96.73515
v -100.0476 65.25695 99.53515
v -113.84504 45.38354 96.73515
v -111.24567 44.306816 99.53515
v -120.90088 22.123545 96.73515
v -118.14139 21.574656 99.53515
v -123.28335 -2.0660326 96.73515
v -120.469795 -2.0660338 99.53515
v -120.900894 -26.255604 96.73515
v -118.1414 -25.70671 99.53515
v -113.84505 -49.515583 96.73515
v -111.24568 -48.438866 99.53515
v -102.386986 -70.95213 96.735146
v -100.0476 -69.38903 99.53514
v -86.96702 -89.74142 96.735146
v -84.97755 -87.75194 99.53514
v -68.17774 -105.16139 96.735146
v -66.614655 -102.82199 99.53514
v -46.741203 -116.61945 96.735146
v -45.66448 -114.02009 99.53514
v -23.481197 -123.6753 96.735146
v -22.932308 -120.91581 99.53514
v 0.7083934 -126.057755 96.735146
v 0.7083906 -123.2442 99.53514
v 24.897985 -123.67528 96.735146
v 24.34909 -120.91578 99.53514
v 48.157978 -116.61941 96.735146
v 47.081257 -114.020035 99.53514
v 69.59452 -105.16135 96.735146
v 68.03143 -102.821945 99.53514
v 88.38377 -89.74137 96.735146
v 86.394295 -87.75189 99.53514
v 103.80374 -70.95206 96.735146
v 101.46437 -69.38892 99.53514
v 115.261795 -49.515514 96.73515
v 112.66242 -48.43879 99.53515
v 122.3176 -26.255516 96.73515
v 119.558105 -25.706635 99.53515
v 124.70006 -2.0659156 96.73515
v 121.886505 -2.0659199 99.53515
v 122.317566 22.12367 96.73515
v 119.558075 21.574776 99.53515
v 115.261696 45.383667 96.73515
v 112.662315 44.30699 99.53515
v 103.80361 66.82019 96.73515
v 101.46425 65.25705 99.53515
v 88.38362 85.609436 96.73515
v 86.394135 83.619965 99.53516
v 69.594315 101.02938 96.73515
v 68.03122 98.68999 99.53516
v 48.157764 112.4874 96.73515
v 47.081047 109.88803 99.53516
v 24.89774 119.54322 96.73515
v 24.348856 116.78373 99.53516
# 96 vertices

vn 0.70710754 -0.70710605 0
vn 0.8314702 -0.55556935 0
vn 0.83147025 -0.5555694 0
vn 0.70710754 -0.70710605 0
vn -0.19509023 0.9807853 -5.1102846E-09
vn -0.38268337 0.92387956 0
vn -0.38268337 0.92387956 0
vn -0.19509023 0.9807853 -5.1102846E-09
vn -0.9807853 0.19509035 0
vn -1 2.812021E-07 0
vn -1 2.7166982E-07 0
vn -0.9807853 0.19509035 0
vn 0.8314702 -0.55556935 0
vn 0.92388 -0.38268226 0
vn 0.92388004 -0.38268226 0
vn 0.83147025 -0.5555694 0
vn -1 2.812021E-07 0
vn -0.9807853 -0.19509014 0
vn -0.9807853 -0.19509014 0
vn -1 2.7166982E-07 0
vn 0.92388 -0.38268226 0
vn 0.9807855 -0.1950894 0
vn 0.9807855 -0.1950894 0
vn 0.92388004 -0.38268226 0
vn -0.9807853 -0.19509014 0
vn -0.9238796 -0.38268322 0
vn -0.9238796 -0.38268322 0
vn -0.9807853 -0.19509014 0
vn 0.9807855 -0.1950894 0
vn 0.99999994 8.054772E-07 0
vn 0.99999994 7.959449E-07 0
vn 0.9807855 -0.1950894 0
vn -0.9238796 -0.38268322 0
vn -0.8314697 -0.55556995 0
vn -0.8314698 -0.55557 0
vn -0.9238796 -0.38268322 0
vn 0.99999994 8.054772E-07 0
vn 0.9807851 0.19509125 0
vn 0.9807851 0.19509125 0
vn 0.99999994 7.959449E-07 0
vn -0.8314697 -0.55556995 0
vn -0.7071072 -0.7071065 0
vn -0.7071072 -0.7071065 0
vn -0.8314698 -0.55557 0
vn 0.9807851 0.19509125 0
vn 0.9238792 0.38268432 0
vn 0.9238792 0.38268432 0
vn 0.9807851 0.19509125 0
vn -0.7071072 -0.7071065 0
vn -0.55557036 -0.8314695 0
vn -0.55557036 -0.8314695 0
vn -0.7071072 -0.7071065 0
vn 0.9238792 0.38268432 0
vn 0.83146876 0.55557144 0
vn 0.8314688 0.55557156 0
vn 0.9238792 0.38268432 0
vn -0.55557036 -0.8314695 0
vn -0.38268322 -0.9238796 0
vn -0.38268322 -0.9238796 0
vn -0.55557036 -0.8314695 0
vn 0.83146876 0.55557144 0
vn 0.70710576 0.70710784 0
vn 0.7071057 0.70710784 0
vn 0.8314688 0.55557156 0
vn -0.38268322 -0.9238796 0
vn -0.19509004 -0.9807853 0
vn -0.19509004 -0.9807853 0
vn -0.38268322 -0.9238796 0
vn 2.5578188E-14 -2.6007926E-08 1
vn 2.5578188E-14 -2.6007926E-08 1
vn 2.5578188E-14 -2.6007926E-08 1
vn 2.5578188E-14 -2.6007926E-08 1
vn 2.5578188E-14 -2.6007926E-08 1
vn 2.5578188E-14 -2.6007926E-08 1
vn 2.5578188E-14 -2.6007926E-08 1
vn 2.5578188E-14 -2.6007926E-08 1
vn 2.5578188E-14 -2.6007926E-08 1
vn 2.5578188E-14 -2.6007926E-08 1
vn 2.5578188E-14 -2.6007926E-08 1
vn 2.5578188E-14 -2.6007926E-08 1
vn 2.5578188E-14 -2.6007926E-08 1
vn 2.5578188E-14 -2.6007926E-08 1
vn 2.5578188E-14 -2.6007926E-08 1
vn 2.5578188E-14 -2.6007926E-08 1
vn 2.5578188E-14 -2.6007926E-08 1
vn 2.5578188E-14 -2.6007926E-08 1
vn 2.5578188E-14 -2.6007926E-08 1
vn 2.5578188E-14 -2.6007926E-08 1
vn 2.5578188E-14 -2.6007926E-08 1
vn 2.5578188E-14 -2.6007926E-08 1
vn 2.5578188E-14 -2.6007926E-08 1
vn 2.5578188E-14 -2.6007926E-08 1
vn 2.5578188E-14 -2.6007926E-08 1
vn 2.5578188E-14 -2.6007926E-08 1
vn 2.5578188E-14 -2.6007926E-08 1
vn 2.5578188E-14 -2.6007926E-08 1
vn 2.5578188E-14 -2.6007926E-08 1
vn 2.5578188E-14 -2.6007926E-08 1
vn 2.5578188E-14 -2.6007926E-08 1
vn 2.5578188E-14 -2.6007926E-08 1
vn 0.70710576 0.70710784 0
vn 0.5555689 0.83147055 0
vn 0.5555689 0.83147055 0
vn 0.7071057 0.70710784 0
vn -0.19509004 -0.9807853 0
vn 4.9091216E-07 -1 0
vn 4.8137986E-07 -1 0
vn -0.19509004 -0.9807853 0
vn 0.19508952 0.9807855 0
vn -1.00088876E-07 1 -5.1102833E-09
vn -1.0962115E-07 1 -5.110284E-09
vn 0.19508952 0.9807855 0
vn 0.5555689 0.83147055 0
vn 0.38268182 0.9238802 0
vn 0.38268182 0.9238802 0
vn 0.5555689 0.83147055 0
vn 4.9091216E-07 -1 0
vn 0.195091 -0.9807852 0
vn 0.195091 -0.9807852 0
vn 4.8137986E-07 -1 0
vn -0.5555703 0.8314696 0
vn -0.70710665 0.707107 0
vn -0.70710665 0.70710695 0
vn -0.5555703 0.8314696 0
vn 0.38268182 0.9238802 0
vn 0.19508952 0.9807855 0
vn 0.19508952 0.9807855 0
vn 0.38268182 0.9238802 0
vn 0.195091 -0.9807852 0
vn 0.38268363 -0.9238795 0
vn 0.38268363 -0.9238795 0
vn 0.195091 -0.9807852 0
vn -0.70710665 0.707107 0
vn -0.8314695 0.55557036 0
vn -0.8314695 0.5555704 0
vn -0.70710665 0.70710695 0
vn 0.38268363 -0.9238795 0
vn 0.55557054 -0.8314694 0
vn 0.55557054 -0.8314694 0
vn 0.38268363 -0.9238795 0
vn -0.8314695 0.55557036 0
vn -0.9238796 0.3826832 0
vn -0.9238796 0.3826832 0
vn -0.8314695 0.5555704 0
vn -0.38268337 0.92387956 0
vn -0.5555703 0.8314696 0
vn -0.5555703 0.8314696 0
vn -0.38268337 0.92387956 0
vn 0.55557054 -0.8314694 0
vn 0.70710754 -0.70710605 0
vn 0.70710754 -0.70710605 0
vn 0.55557054 -0.8314694 0
vn -0.9238796 0.3826832 0
vn -0.9807853 0.19509035 0
vn -0.9807853 0.19509035 0
vn -0.9238796 0.3826832 0
vn 3.0189753E-05 1.4990568E-05 1
vn -3.207475E-05 8.7320805E-06 1
vn -3.56324E-05 0.99998856 -0.0047874153
vn -0.19512276 0.9807672 -0.0047875643
vn -3.2305717E-05 -5.155802E-06 1.0000001
vn 3.0189753E-05 1.4990568E-05 1
vn -0.19512276 0.9807672 -0.0047875643
vn -0.38271242 0.92385507 -0.004786372
vn -3.1277537E-05 -1.1652708E-05 1
vn -3.2305717E-05 -5.155802E-06 1.0000001
vn -0.38271242 0.92385507 -0.004786372
vn -0.55559367 0.8314402 -0.0047864616
vn 1.6659498E-05 2.8192997E-05 1
vn -3.1277537E-05 -1.1652708E-05 1
vn -0.55559367 0.8314402 -0.0047864616
vn -0.7071239 0.7070734 -0.004786849
vn -2.5004148E-05 -2.1904707E-05 1
vn 1.6659498E-05 2.8192997E-05 1
vn -0.7071239 0.7070734 -0.004786849
vn -0.83148 0.5555341 -0.004787445
vn 4.798174E-06 3.272295E-05 1
vn -2.5004148E-05 -2.1904707E-05 1
vn -0.83148 0.5555341 -0.004787445
vn -0.9238825 0.38264638 -0.0047867596
vn 1.4901161E-06 3.257394E-05 1
vn 4.798174E-06 3.272295E-05 1
vn -0.9238825 0.38264638 -0.0047867596
vn -0.98078096 0.19505343 -0.0047834516
vn -6.1392784E-06 3.2108277E-05 1
vn 1.4901161E-06 3.257394E-05 1
vn -0.98078096 0.19505343 -0.0047834516
vn -0.99998856 -3.5542995E-05 -0.0047848225
vn -1.6957521E-05 2.9180199E-05 0.99999994
vn -6.1392784E-06 3.2108277E-05 1
vn -0.99998856 -3.5542995E-05 -0.0047848225
vn -0.980767 -0.19512324 -0.004789889
vn 3.606081E-06 -3.363192E-05 1
vn -1.6957521E-05 2.9180199E-05 0.99999994
vn -0.980767 -0.19512324 -0.004789889
vn -0.9238553 -0.38271195 -0.0047882497
vn -2.476573E-05 2.1979213E-05 1
vn 3.606081E-06 -3.363192E-05 1
vn -0.9238553 -0.38271195 -0.0047882497
vn -0.8314405 -0.5555932 -0.0047872365
vn -2.965331E-05 1.579523E-05 1
vn -2.476573E-05 2.1979213E-05 1
vn -0.8314405 -0.5555932 -0.0047872365
vn -0.7070732 -0.70712405 -0.004788667
vn 2.2053719E-05 -2.4706125E-05 1
vn -2.965331E-05 1.579523E-05 1
vn -0.7070732 -0.70712405 -0.004788667
vn -0.5555342 -0.83147997 -0.0047872663
vn -3.2424927E-05 4.827976E-06 0.99999994
vn 2.2053719E-05 -2.4706125E-05 1
vn -0.5555342 -0.83147997 -0.0047872663
vn -0.38264608 -0.9238826 -0.00478673
vn -3.273785E-05 -1.5795231E-06 1
vn -3.2424927E-05 4.827976E-06 0.99999994
vn -0.38264608 -0.9238826 -0.00478673
vn -0.1950525 -0.98078114 -0.004786819
vn -3.219396E-05 -7.301569E-06 1
vn -3.273785E-05 -1.5795231E-06 1
vn -0.1950525 -0.98078114 -0.004786819
vn 3.6373734E-05 -0.99998856 -0.004786104
vn -3.0040741E-05 -1.3589859E-05 1
vn -3.219396E-05 -7.301569E-06 1
vn 3.6373734E-05 -0.99998856 -0.004786104
vn 0.19512406 -0.98076695 -0.0047861636
vn -2.6658177E-05 -1.9043684E-05 1
vn -3.0040741E-05 -1.3589859E-05 1
vn 0.19512406 -0.98076695 -0.0047861636
vn 0.38271266 -0.923855 -0.0047858357
vn -2.2247434E-05 -2.3454428E-05 1
vn -2.6658177E-05 -1.9043684E-05 1
vn 0.38271266 -0.923855 -0.0047858357
vn 0.5555937 -0.8314401 -0.004786283
vn 2.8192997E-05 1.758337E-05 1
vn -2.2247434E-05 -2.3454428E-05 1
vn 0.5555937 -0.8314401 -0.004786283
vn 0.7071245 -0.70707285 -0.0047861934
vn -1.1831522E-05 -3.1113625E-05 1
vn 2.8192997E-05 1.758337E-05 1
vn 0.7071245 -0.70707285 -0.0047861934
vn 0.8314803 -0.5555336 -0.0047861338
vn -4.3809414E-06 -3.3035874E-05 1
vn -1.1831522E-05 -3.1113625E-05 1
vn 0.8314803 -0.5555336 -0.0047861338
vn 0.92388296 -0.38264537 -0.004787624
vn 1.2516975E-06 -3.3065677E-05 1
vn -4.3809414E-06 -3.3035874E-05 1
vn 0.92388296 -0.38264537 -0.004787624
vn 0.9807812 -0.19505192 -0.004786074
vn 6.6161156E-06 -3.200397E-05 1
vn 1.2516975E-06 -3.3065677E-05 1
vn 0.9807812 -0.19505192 -0.004786074
vn 0.99998856 3.652647E-05 -0.004785508
vn 1.5467405E-05 -2.9299408E-05 0.99999994
vn 6.6161156E-06 -3.200397E-05 1
vn 0.99998856 3.652647E-05 -0.004785508
vn 0.9807669 0.19512421 -0.0047881305
vn 2.1398067E-05 -2.5495887E-05 1
vn 1.5467405E-05 -2.9299408E-05 0.99999994
vn 0.9807669 0.19512421 -0.0047881305
vn 0.9238548 0.38271296 -0.0047888756
vn -1.0758638E-05 3.090501E-05 1
vn 2.1398067E-05 -2.5495887E-05 1
vn 0.9238548 0.38271296 -0.0047888756
vn 0.8314396 0.55559456 -0.004787177
vn 2.849102E-05 -1.7553568E-05 0.9999999
vn -1.0758638E-05 3.090501E-05 1
vn 0.8314396 0.55559456 -0.004787177
vn 0.70707285 0.7071246 -0.004786372
vn 3.129244E-05 -1.090765E-05 1
vn 2.849102E-05 -1.7553568E-05 0.9999999
vn 0.70707285 0.7071246 -0.004786372
vn 0.55553263 0.831481 -0.004787147
vn 3.2514334E-05 -5.2452087E-06 1
vn 3.129244E-05 -1.090765E-05 1
vn 0.55553263 0.831481 -0.004787147
vn 0.3826447 0.9238832 -0.0047859848
vn 3.3393502E-05 1.5199184E-06 1
vn 3.2514334E-05 -5.2452087E-06 1
vn 0.3826447 0.9238832 -0.0047859848
vn 0.19505185 0.9807813 -0.004786521
vn -3.207475E-05 8.7320805E-06 1
vn 3.3393502E-05 1.5199184E-06 1
vn 0.19505185 0.9807813 -0.004786521
vn -3.56324E-05 0.99998856 -0.0047874153
vn -1.00088876E-07 1 -5.1102833E-09
vn -0.19509023 0.9807853 -5.1102846E-09
vn -0.19509023 0.9807853 -5.1102846E-09
vn -1.0962115E-07 1 -5.110284E-09
# 288 vertex normals

vt 0.7983943 0.8527926 0
vt 0.4993444 0.82086354 0
vt 0.84589505 0.79416084 0
vt 0.6018364 0.56300014 0
vt 0.4809888 0.6452198 0
vt 0.47953343 0.7206077 0
vt 0.8329668 0.7197623 0
vt 0.7088174 0.562593 0
vt 0.8130522 0.8202998 0
vt 0.5396609 0.87873375 0
vt 0.80948424 0.61218387 0
vt 0.5713941 0.58213675 0
vt 0.4664502 0.6809025 0
vt 0.8181689 0.6512195 0
vt 0.6741821 0.9132795 0
vt 0.8387981 0.75493 0
vt 0.71442217 0.9260954 0
vt 0.5725638 0.8934246 0
vt 0.78175837 0.5845676 0
vt 0.5135455 0.6222612 0
vt 0.50277925 0.86261296 0
vt 0.7936765 0.6254309 0
vt 0.74326617 0.89820844 0
vt 0.47945526 0.7551801 0
vt 0.7502959 0.911071 0
vt 0.6387752 0.9192251 0
vt 0.5974572 0.54893774 0
vt 0.49909717 0.6546846 0
vt 0.53038377 0.89018255 0
vt 0.74225986 0.57613176 0
vt 0.7692744 0.8734929 0
vt 0.4941514 0.82364446 0
vt 0.8533174 0.7562824 0
vt 0.63786674 0.5618023 0
vt 0.5615035 0.5640187 0
vt 0.47365764 0.72005665 0
vt 0.8388276 0.71917593 0
vt 0.673403 0.5558414 0
vt 0.8182673 0.82306415 0
vt 0.51856863 0.8494202 0
vt 0.8533174 0.71768683 0
vt 0.5685495 0.57691723 0
vt 0.45915934 0.7187234 0
vt 0.826224 0.6858895 0
vt 0.6747926 0.9191902 0
vt 0.826263 0.78832483 0
vt 0.56978995 0.8987112 0
vt 0.74906266 0.5630468 0
vt 0.5424141 0.601616 0
vt 0.459137 0.7572373 0
vt 0.79821336 0.62158585 0
vt 0.70829403 0.90640754 0
vt 0.47360256 0.7557623 0
vt 0.7823763 0.8893047 0
vt 0.60497785 0.90667224 0
vt 0.67471683 0.54118043 0
vt 0.49387446 0.6519533 0
vt 0.5629464 0.91178155 0
vt 0.76869446 0.6007057 0
vt 0.77302045 0.8780521 0
vt 0.4861492 0.7890153 0
vt 0.8097061 0.8620037 0
vt 0.6372551 0.5558715 0
vt 0.5293286 0.58581954 0
vt 0.48607057 0.6866491 0
vt 0.59915006 0.92654276 0
vt 0.672867 0.5617834 0
vt 0.7938236 0.8490545 0
vt 0.5140362 0.8532485 0
vt 0.84576166 0.6798766 0
vt 0.6035949 0.56868964 0
vt 0.5022354 0.6131347 0
vt 0.83185065 0.6841684 0
vt 0.70713484 0.56827843 0
vt 0.831917 0.790014 0
vt 0.5434289 0.87411773 0
vt 0.83098173 0.6442825 0
vt 0.5386806 0.5970481 0
vt 0.46663484 0.7949967 0
vt 0.8129705 0.65401155 0
vt 0.71005493 0.9120812 0
vt 0.83291435 0.7543733 0
vt 0.67632765 0.9337885 0
vt 0.6032887 0.9123938 0
vt 0.7129133 0.54846746 0
vt 0.5181254 0.6259544 0
vt 0.48135296 0.83055514 0
vt 0.77248853 0.5960621 0
vt 0.7404339 0.89296645 0
vt 0.4805293 0.79072756 0
vt 0.83116513 0.82987773 0
vt 0.6393334 0.9132934 0
vt 0.6357218 0.5412215 0
vt 0.4804132 0.6849858 0
vt 0.63744956 0.93388075 0
vt 0.7394623 0.5814026 0
# 96 texture coords

usemtl Glass
s 1
f 21/21/1 22/87/2 75/32/3 73/69/4
f 1/85/5 3/48/6 37/30/7 33/8/8
f 8/41/9 9/33/10 49/16/11 47/37/12
f 22/87/13 23/79/14 77/90/15 75/32/16
f 9/33/17 10/3/18 51/75/19 49/16/20
f 23/79/21 24/50/22 79/53/23 77/90/24
f 10/3/25 11/91/26 53/39/27 51/75/28
f 24/50/29 25/43/30 81/36/31 79/53/32
f 11/91/33 12/62/34 55/1/35 53/39/36
f 25/43/37 26/13/38 83/94/39 81/36/40
f 12/62/41 13/54/42 57/60/43 55/1/44
f 26/13/45 27/5/46 85/57/47 83/94/48
f 13/54/49 14/25/50 59/23/51 57/60/52
f 27/5/53 28/72/54 87/20/55 85/57/56
f 14/25/57 15/17/58 61/81/59 59/23/60
f 28/72/61 29/64/62 89/78/63 87/20/64
f 15/17/65 16/83/66 63/45/67 61/81/68
f 34/74/69 38/96/70 40/59/71 42/22/72 44/80/73 46/44/74 48/7/75 50/82/76 52/46/77 54/9/78 56/68/79 58/31/80 60/89/81 62/52/82 64/15/83 66/92/84 68/55/85 70/18/86 72/76/87 74/40/88 76/2/89 78/61/90 80/24/91 82/6/92 84/65/93 86/28/94 88/86/95 90/49/96 92/12/97 94/71/98 96/34/99 35/67/100
f 29/64/101 30/35/102 91/42/103 89/78/104
f 16/83/105 17/95/106 65/26/107 63/45/108
f 32/93/109 2/56/110 36/38/111 95/63/112
f 30/35/113 31/27/114 93/4/115 91/42/116
f 17/95/117 18/66/118 67/84/119 65/26/120
f 4/19/121 5/11/122 41/51/123 39/88/124
f 31/27/125 32/93/126 95/63/127 93/4/128
f 18/66/129 19/58/130 69/47/131 67/84/132
f 5/11/133 6/77/134 43/14/135 41/51/136
f 19/58/137 20/29/138 71/10/139 69/47/140
f 6/77/141 7/70/142 45/73/143 43/14/144
f 3/48/145 4/19/146 39/88/147 37/30/148
f 20/29/149 21/21/150 73/69/151 71/10/152
f 7/70/153 8/41/154 47/37/155 45/73/156
f 34/74/157 35/67/158 36/38/159 33/8/160
f 38/96/161 34/74/162 33/8/163 37/30/164
f 40/59/165 38/96/166 37/30/167 39/88/168
f 42/22/169 40/59/170 39/88/171 41/51/172
f 44/80/173 42/22/174 41/51/175 43/14/176
f 46/44/177 44/80/178 43/14/179 45/73/180
f 48/7/181 46/44/182 45/73/183 47/37/184
f 50/82/185 48/7/186 47/37/187 49/16/188
f 52/46/189 50/82/190 49/16/191 51/75/192
f 54/9/193 52/46/194 51/75/195 53/39/196
f 56/68/197 54/9/198 53/39/199 55/1/200
f 58/31/201 56/68/202 55/1/203 57/60/204
f 60/89/205 58/31/206 57/60/207 59/23/208
f 62/52/209 60/89/210 59/23/211 61/81/212
f 64/15/213 62/52/214 61/81/215 63/45/216
f 66/92/217 64/15/218 63/45/219 65/26/220
f 68/55/221 66/92/222 65/26/223 67/84/224
f 70/18/225 68/55/226 67/84/227 69/47/228
f 72/76/229 70/18/230 69/47/231 71/10/232
f 74/40/233 72/76/234 71/10/235 73/69/236
f 76/2/237 74/40/238 73/69/239 75/32/240
f 78/61/241 76/2/242 75/32/243 77/90/244
f 80/24/245 78/61/246 77/90/247 79/53/248
f 82/6/249 80/24/250 79/53/251 81/36/252
f 84/65/253 82/6/254 81/36/255 83/94/256
f 86/28/257 84/65/258 83/94/259 85/57/260
f 88/86/261 86/28/262 85/57/263 87/20/264
f 90/49/265 88/86/266 87/20/267 89/78/268
f 92/12/269 90/49/270 89/78/271 91/42/272
f 94/71/273 92/12/274 91/42/275 93/4/276
f 96/34/277 94/71/278 93/4/279 95/63/280
f 35/67/281 96/34/282 95/63/283 36/38/284
f 2/56/285 1/85/286 33/8/287 36/38/288
#65 polygons
